<?xml version="1.0" encoding="UTF-8"?>
<svg width="640" height="123.87" xmlns="http://www.w3.org/2000/svg" xmlns:svg="http://www.w3.org/2000/svg">
 <title>logos</title>
 <g>
  <title>Layer 1</title>
  <g id="svg_1" fill="#333">
   <path fill="#ffffff" id="svg_2" d="m523.512743,40.165492c-3.4778,-2.461 -6.0048,-4.9559 -6.0048,-8.0337l-19.338,0c0,5.5388 -2.527,8.0337 -5.6449,8.0337l-5.1644,0l0,56.236l100.42,0l0,-56.236l-64.629,0l0.3611,0zm-6.0056,16.067l-18.096,0l0,-8.0337l20.084,0l0,6.4644l-1.988,1.5693zm33.991,31.276c-11.457,0 -20.779,-9.2018 -20.779,-20.513s9.3215,-20.04 20.779,-20.04c11.457,0 20.778,8.7283 20.778,20.04c0,11.311 -9.3207,20.513 -20.778,20.513zm11.17,-20.513c0,6.0803 -5.011,11.028 -11.169,11.028c-6.1591,0 -11.17,-4.9476 -11.17,-11.028c0,-6.081 5.0109,-11.027 11.17,-11.027c6.1582,0 11.169,4.9468 11.169,11.027zm77.334,-34.48l-25.001,63.735l-19.184,-7.6934l0,-10.862l13.323,5.4522l17.592,-44.844l-65.92,-25.205l-6.1099,19.034l-11,0l11.248,-32.135l85.053,32.519l-0.0011,-0.0008z"/>
   <g id="svg_3" font-weight="normal" font-size="23.686451px" font-style="normal" transform="matrix(4.129044,0,0,4.129044,-488.6229,-1536.6294) " font-family="VomZom">
    <path fill="#ffffff" id="svg_4" d="m126.560771,379.055491c4.011,-0.0921 7.7758,3.1703 8.1995,7.17c0.50671,3.5153 -1.5613,7.166 -4.8022,8.5926c-1.9632,0.97468 -4.1802,0.67513 -6.2919,0.72493l-2.063,0l0,6.6094l-3.2677,0c0.007,-5.0998 -0.0132,-10.2 0.01,-15.3c0.10696,-3.7986 3.2179,-7.2015 6.9739,-7.7072c0.41065,-0.061 0.82716,-0.0908 1.2414,-0.0901l0,0.00037zm0,13.219c2.3572,0.0591 4.5679,-1.78 4.9197,-4.1152c0.46978,-2.3507 -1.0297,-4.8765 -3.3219,-5.5815c-2.214,-0.78561 -4.8777,0.24867 -5.9588,2.3393c-0.83901,1.4284 -0.54099,3.1171 -0.59666,4.691l0,2.6665c1.6526,-0.00001 3.3051,0.00001 4.9577,-0.00001l-0.00004,-0.00009z"/>
    <path fill="#ffffff" id="svg_5" d="m136.340771,378.975491l3.2308,0l0,16.488l-3.2308,0l0,-16.488z"/>
    <path fill="#ffffff" id="svg_6" d="m149.280771,389.385491l0.11776,0l4.5925,6.1234l4.0037,0l-6.2411,-8.4785l5.5346,-8.0075l-4.0038,0l-3.886,5.6523l-0.11776,0l-3.886,-5.6523l-4.0037,0l5.5346,8.0075l-6.2411,8.4785l4.0038,0l4.5925,-6.1234z"/>
    <path fill="#ffffff" id="svg_7" d="m165.310771,378.975491c3.2724,-0.0646 6.4111,2.0792 7.6221,5.1058c0.63231,1.4057 0.62342,2.963 0.60314,4.472l0,6.91c-2.9161,-0.01 -5.8331,0.0201 -8.7487,-0.0157c-3.3523,-0.16361 -6.4178,-2.608 -7.3775,-5.8156c-0.87984,-2.7888 -0.14884,-6.0271 1.922,-8.1097c1.5471,-1.6003 3.7454,-2.5681 5.9789,-2.5468l0.00006,0zm4.9576,13.22c-0.014,-1.8333 0.0294,-3.6684 -0.0241,-5.5004c-0.19325,-2.4562 -2.4685,-4.514 -4.9336,-4.4508c-2.3436,-0.0566 -4.553,1.7616 -4.9197,4.0819c-0.42956,2.2266 0.84881,4.6528 2.9737,5.4838c1.3088,0.57081 2.7544,0.33544 4.1378,0.38549c0.92196,0.00001 1.8439,0.00001 2.7659,0.00001z"/>
    <path fill="#ffffff" id="svg_8" d="m183.370771,379.055491c3.8699,-0.0954 7.4862,2.9494 8.1024,6.7609c0.69922,3.6121 -1.3415,7.5146 -4.7051,9.0017c-3.2872,1.5514 -7.5139,0.55177 -9.7744,-2.2912c-1.401,-1.6503 -2.0047,-3.8445 -1.8853,-5.984l0,-14.097l3.2677,0l0,6.6094c1.6649,0.00021 3.3302,-0.00043 4.9948,0.00032l-0.0001,-0.00012zm0,13.219c2.4818,0.0664 4.7507,-2.0174 4.9325,-4.4865c0.31135,-2.4542 -1.5078,-4.9223 -3.9368,-5.3683c-1.3432,-0.18387 -2.7076,-0.0602 -4.0606,-0.0964l-1.9297,0c0.021,1.8627 -0.0445,3.7289 0.0376,5.5892c0.25949,2.4609 2.485,4.4103 4.957,4.362z"/>
    <path fill="#ffffff" id="svg_9" d="m201.080771,378.975491c3.2725,-0.0646 6.411,2.0793 7.6222,5.1058c0.63229,1.4057 0.62343,2.963 0.60314,4.472l0,6.91c-2.9161,-0.01 -5.8331,0.0201 -8.7487,-0.0157c-3.3523,-0.16361 -6.4178,-2.608 -7.3775,-5.8156c-0.87985,-2.7888 -0.14883,-6.0271 1.922,-8.1097c1.547,-1.6003 3.7454,-2.5681 5.9788,-2.5468l0.00006,0zm4.9576,13.22c-0.014,-1.8333 0.0294,-3.6684 -0.0241,-5.5004c-0.19325,-2.4562 -2.4685,-4.514 -4.9336,-4.4508c-2.3436,-0.0566 -4.553,1.7616 -4.9197,4.0819c-0.42957,2.2266 0.84881,4.6528 2.9737,5.4838c1.3088,0.57081 2.7544,0.33544 4.1378,0.38549c0.92196,0.00001 1.8439,0.00001 2.7659,0.00001z"/>
    <path fill="#ffffff" id="svg_10" d="m227.290771,379.015491c-0.007,5.0876 0.0132,10.176 -0.0101,15.263c-0.11859,4.004 -3.5594,7.6027 -7.5766,7.8119c-0.7631,0.0404 -1.5278,0.0158 -2.2917,0.0226l0,-3.2677c1.3944,-0.007 2.8862,0.13456 4.1212,-0.65516c1.5426,-0.86529 2.523,-2.6105 2.4882,-4.3753c-2.8966,2.3356 -7.3871,2.2143 -10.204,-0.19651c-2.0523,-1.6568 -3.1738,-4.322 -3.0154,-6.9447l0,-7.6578l3.2677,0c0.015,2.9107 -0.0307,5.8234 0.0241,8.7328c0.17752,2.3961 2.314,4.4238 4.7151,4.4811c2.4332,0.18697 4.7752,-1.7026 5.1382,-4.1097c0.14646,-1.44 0.0425,-2.8946 0.0738,-4.3411l0,-4.7632c1.0896,-0.00007 2.1792,-0.00014 3.2689,-0.00021l0.0006,-0.00002z"/>
   </g>
  </g>
 </g>
</svg>